<?xml version="1.0" encoding="UTF-8" standalone="no"?>
<!DOCTYPE svg PUBLIC "-//W3C//DTD SVG 1.1//EN"
 "http://www.w3.org/Graphics/SVG/1.1/DTD/svg11.dtd">
<!-- Generated by graphviz version 2.38.0 (20140413.2041)
 -->
<!-- Title: Tree Pages: 1 -->
<svg width="1144pt" height="433pt"
 viewBox="0.00 0.00 1144.00 433.00" xmlns="http://www.w3.org/2000/svg" xmlns:xlink="http://www.w3.org/1999/xlink">
<g id="graph0" class="graph" transform="scale(1 1) rotate(0) translate(4 429)">
<title>Tree</title>
<polygon fill="white" stroke="none" points="-4,4 -4,-429 1140,-429 1140,4 -4,4"/>
<!-- 0 -->
<g id="node1" class="node"><title>0</title>
<path fill="#399de5" fill-opacity="0.152941" stroke="black" d="M620,-425C620,-425 504,-425 504,-425 498,-425 492,-419 492,-413 492,-413 492,-354 492,-354 492,-348 498,-342 504,-342 504,-342 620,-342 620,-342 626,-342 632,-348 632,-354 632,-354 632,-413 632,-413 632,-419 626,-425 620,-425"/>
<text text-anchor="start" x="525" y="-409.8" font-family="Helvetica,sans-Serif" font-size="14.00">thal_2 ≤ 0.5</text>
<text text-anchor="start" x="524.5" y="-394.8" font-family="Helvetica,sans-Serif" font-size="14.00">gini = 0.497</text>
<text text-anchor="start" x="514.5" y="-379.8" font-family="Helvetica,sans-Serif" font-size="14.00">samples = 242</text>
<text text-anchor="start" x="505" y="-364.8" font-family="Helvetica,sans-Serif" font-size="14.00">value = [111, 131]</text>
<text text-anchor="start" x="500" y="-349.8" font-family="Helvetica,sans-Serif" font-size="14.00">class = No Disease</text>
</g>
<!-- 1 -->
<g id="node2" class="node"><title>1</title>
<path fill="#e58139" fill-opacity="0.682353" stroke="black" d="M505,-306C505,-306 411,-306 411,-306 405,-306 399,-300 399,-294 399,-294 399,-235 399,-235 399,-229 405,-223 411,-223 411,-223 505,-223 505,-223 511,-223 517,-229 517,-235 517,-235 517,-294 517,-294 517,-300 511,-306 505,-306"/>
<text text-anchor="start" x="424" y="-290.8" font-family="Helvetica,sans-Serif" font-size="14.00">cp_0 ≤ 0.5</text>
<text text-anchor="start" x="420.5" y="-275.8" font-family="Helvetica,sans-Serif" font-size="14.00">gini = 0.366</text>
<text text-anchor="start" x="410.5" y="-260.8" font-family="Helvetica,sans-Serif" font-size="14.00">samples = 108</text>
<text text-anchor="start" x="409.5" y="-245.8" font-family="Helvetica,sans-Serif" font-size="14.00">value = [82, 26]</text>
<text text-anchor="start" x="407" y="-230.8" font-family="Helvetica,sans-Serif" font-size="14.00">class = Disease</text>
</g>
<!-- 0&#45;&gt;1 -->
<g id="edge1" class="edge"><title>0&#45;&gt;1</title>
<path fill="none" stroke="black" d="M525.918,-341.907C517.851,-332.832 509.219,-323.121 500.906,-313.769"/>
<polygon fill="black" stroke="black" points="503.278,-311.17 494.018,-306.021 498.046,-315.82 503.278,-311.17"/>
<text text-anchor="middle" x="492.55" y="-327.278" font-family="Helvetica,sans-Serif" font-size="14.00">True</text>
</g>
<!-- 8 -->
<g id="node9" class="node"><title>8</title>
<path fill="#399de5" fill-opacity="0.725490" stroke="black" d="M725,-306C725,-306 609,-306 609,-306 603,-306 597,-300 597,-294 597,-294 597,-235 597,-235 597,-229 603,-223 609,-223 609,-223 725,-223 725,-223 731,-223 737,-229 737,-235 737,-235 737,-294 737,-294 737,-300 731,-306 725,-306"/>
<text text-anchor="start" x="633.5" y="-290.8" font-family="Helvetica,sans-Serif" font-size="14.00">ca ≤ 0.125</text>
<text text-anchor="start" x="629.5" y="-275.8" font-family="Helvetica,sans-Serif" font-size="14.00">gini = 0.339</text>
<text text-anchor="start" x="619.5" y="-260.8" font-family="Helvetica,sans-Serif" font-size="14.00">samples = 134</text>
<text text-anchor="start" x="614" y="-245.8" font-family="Helvetica,sans-Serif" font-size="14.00">value = [29, 105]</text>
<text text-anchor="start" x="605" y="-230.8" font-family="Helvetica,sans-Serif" font-size="14.00">class = No Disease</text>
</g>
<!-- 0&#45;&gt;8 -->
<g id="edge8" class="edge"><title>0&#45;&gt;8</title>
<path fill="none" stroke="black" d="M598.429,-341.907C606.655,-332.742 615.463,-322.927 623.933,-313.489"/>
<polygon fill="black" stroke="black" points="626.561,-315.801 630.635,-306.021 621.351,-311.126 626.561,-315.801"/>
<text text-anchor="middle" x="631.985" y="-327.284" font-family="Helvetica,sans-Serif" font-size="14.00">False</text>
</g>
<!-- 2 -->
<g id="node3" class="node"><title>2</title>
<path fill="#399de5" fill-opacity="0.109804" stroke="black" d="M275,-187C275,-187 159,-187 159,-187 153,-187 147,-181 147,-175 147,-175 147,-116 147,-116 147,-110 153,-104 159,-104 159,-104 275,-104 275,-104 281,-104 287,-110 287,-116 287,-116 287,-175 287,-175 287,-181 281,-187 275,-187"/>
<text text-anchor="start" x="183.5" y="-171.8" font-family="Helvetica,sans-Serif" font-size="14.00">ca ≤ 0.125</text>
<text text-anchor="start" x="179.5" y="-156.8" font-family="Helvetica,sans-Serif" font-size="14.00">gini = 0.498</text>
<text text-anchor="start" x="173.5" y="-141.8" font-family="Helvetica,sans-Serif" font-size="14.00">samples = 34</text>
<text text-anchor="start" x="168.5" y="-126.8" font-family="Helvetica,sans-Serif" font-size="14.00">value = [16, 18]</text>
<text text-anchor="start" x="155" y="-111.8" font-family="Helvetica,sans-Serif" font-size="14.00">class = No Disease</text>
</g>
<!-- 1&#45;&gt;2 -->
<g id="edge2" class="edge"><title>1&#45;&gt;2</title>
<path fill="none" stroke="black" d="M398.736,-234.729C367.907,-219.762 329.794,-201.259 296.446,-185.069"/>
<polygon fill="black" stroke="black" points="297.701,-181.788 287.176,-180.569 294.644,-188.085 297.701,-181.788"/>
</g>
<!-- 5 -->
<g id="node6" class="node"><title>5</title>
<path fill="#e58139" fill-opacity="0.878431" stroke="black" d="M505.5,-187C505.5,-187 410.5,-187 410.5,-187 404.5,-187 398.5,-181 398.5,-175 398.5,-175 398.5,-116 398.5,-116 398.5,-110 404.5,-104 410.5,-104 410.5,-104 505.5,-104 505.5,-104 511.5,-104 517.5,-110 517.5,-116 517.5,-116 517.5,-175 517.5,-175 517.5,-181 511.5,-187 505.5,-187"/>
<text text-anchor="start" x="406.5" y="-171.8" font-family="Helvetica,sans-Serif" font-size="14.00">oldpeak ≤ 0.089</text>
<text text-anchor="start" x="420.5" y="-156.8" font-family="Helvetica,sans-Serif" font-size="14.00">gini = 0.193</text>
<text text-anchor="start" x="414.5" y="-141.8" font-family="Helvetica,sans-Serif" font-size="14.00">samples = 74</text>
<text text-anchor="start" x="413.5" y="-126.8" font-family="Helvetica,sans-Serif" font-size="14.00">value = [66, 8]</text>
<text text-anchor="start" x="407" y="-111.8" font-family="Helvetica,sans-Serif" font-size="14.00">class = Disease</text>
</g>
<!-- 1&#45;&gt;5 -->
<g id="edge5" class="edge"><title>1&#45;&gt;5</title>
<path fill="none" stroke="black" d="M458,-222.907C458,-214.649 458,-205.864 458,-197.302"/>
<polygon fill="black" stroke="black" points="461.5,-197.021 458,-187.021 454.5,-197.021 461.5,-197.021"/>
</g>
<!-- 3 -->
<g id="node4" class="node"><title>3</title>
<path fill="#399de5" fill-opacity="0.533333" stroke="black" d="M128,-68C128,-68 12,-68 12,-68 6,-68 0,-62 0,-56 0,-56 0,-12 0,-12 0,-6 6,-0 12,-0 12,-0 128,-0 128,-0 134,-0 140,-6 140,-12 140,-12 140,-56 140,-56 140,-62 134,-68 128,-68"/>
<text text-anchor="start" x="32.5" y="-52.8" font-family="Helvetica,sans-Serif" font-size="14.00">gini = 0.434</text>
<text text-anchor="start" x="26.5" y="-37.8" font-family="Helvetica,sans-Serif" font-size="14.00">samples = 22</text>
<text text-anchor="start" x="25.5" y="-22.8" font-family="Helvetica,sans-Serif" font-size="14.00">value = [7, 15]</text>
<text text-anchor="start" x="8" y="-7.8" font-family="Helvetica,sans-Serif" font-size="14.00">class = No Disease</text>
</g>
<!-- 2&#45;&gt;3 -->
<g id="edge3" class="edge"><title>2&#45;&gt;3</title>
<path fill="none" stroke="black" d="M162.263,-103.726C149.406,-94.1494 135.729,-83.9611 122.952,-74.4438"/>
<polygon fill="black" stroke="black" points="124.814,-71.4666 114.704,-68.2996 120.632,-77.0803 124.814,-71.4666"/>
</g>
<!-- 4 -->
<g id="node5" class="node"><title>4</title>
<path fill="#e58139" fill-opacity="0.666667" stroke="black" d="M264,-68C264,-68 170,-68 170,-68 164,-68 158,-62 158,-56 158,-56 158,-12 158,-12 158,-6 164,-0 170,-0 170,-0 264,-0 264,-0 270,-0 276,-6 276,-12 276,-12 276,-56 276,-56 276,-62 270,-68 264,-68"/>
<text text-anchor="start" x="179.5" y="-52.8" font-family="Helvetica,sans-Serif" font-size="14.00">gini = 0.375</text>
<text text-anchor="start" x="173.5" y="-37.8" font-family="Helvetica,sans-Serif" font-size="14.00">samples = 12</text>
<text text-anchor="start" x="176.5" y="-22.8" font-family="Helvetica,sans-Serif" font-size="14.00">value = [9, 3]</text>
<text text-anchor="start" x="166" y="-7.8" font-family="Helvetica,sans-Serif" font-size="14.00">class = Disease</text>
</g>
<!-- 2&#45;&gt;4 -->
<g id="edge4" class="edge"><title>2&#45;&gt;4</title>
<path fill="none" stroke="black" d="M217,-103.726C217,-95.5175 217,-86.8595 217,-78.56"/>
<polygon fill="black" stroke="black" points="220.5,-78.2996 217,-68.2996 213.5,-78.2996 220.5,-78.2996"/>
</g>
<!-- 6 -->
<g id="node7" class="node"><title>6</title>
<path fill="#e58139" fill-opacity="0.498039" stroke="black" d="M400,-68C400,-68 306,-68 306,-68 300,-68 294,-62 294,-56 294,-56 294,-12 294,-12 294,-6 300,-0 306,-0 306,-0 400,-0 400,-0 406,-0 412,-6 412,-12 412,-12 412,-56 412,-56 412,-62 406,-68 400,-68"/>
<text text-anchor="start" x="315.5" y="-52.8" font-family="Helvetica,sans-Serif" font-size="14.00">gini = 0.444</text>
<text text-anchor="start" x="309.5" y="-37.8" font-family="Helvetica,sans-Serif" font-size="14.00">samples = 18</text>
<text text-anchor="start" x="308.5" y="-22.8" font-family="Helvetica,sans-Serif" font-size="14.00">value = [12, 6]</text>
<text text-anchor="start" x="302" y="-7.8" font-family="Helvetica,sans-Serif" font-size="14.00">class = Disease</text>
</g>
<!-- 5&#45;&gt;6 -->
<g id="edge6" class="edge"><title>5&#45;&gt;6</title>
<path fill="none" stroke="black" d="M418.902,-103.726C410.068,-94.5142 400.692,-84.7364 391.869,-75.5343"/>
<polygon fill="black" stroke="black" points="394.379,-73.095 384.931,-68.2996 389.326,-77.9399 394.379,-73.095"/>
</g>
<!-- 7 -->
<g id="node8" class="node"><title>7</title>
<path fill="#e58139" fill-opacity="0.964706" stroke="black" d="M536,-68C536,-68 442,-68 442,-68 436,-68 430,-62 430,-56 430,-56 430,-12 430,-12 430,-6 436,-0 442,-0 442,-0 536,-0 536,-0 542,-0 548,-6 548,-12 548,-12 548,-56 548,-56 548,-62 542,-68 536,-68"/>
<text text-anchor="start" x="451.5" y="-52.8" font-family="Helvetica,sans-Serif" font-size="14.00">gini = 0.069</text>
<text text-anchor="start" x="445.5" y="-37.8" font-family="Helvetica,sans-Serif" font-size="14.00">samples = 56</text>
<text text-anchor="start" x="444.5" y="-22.8" font-family="Helvetica,sans-Serif" font-size="14.00">value = [54, 2]</text>
<text text-anchor="start" x="438" y="-7.8" font-family="Helvetica,sans-Serif" font-size="14.00">class = Disease</text>
</g>
<!-- 5&#45;&gt;7 -->
<g id="edge7" class="edge"><title>5&#45;&gt;7</title>
<path fill="none" stroke="black" d="M469.543,-103.726C471.919,-95.3351 474.427,-86.4745 476.824,-78.0072"/>
<polygon fill="black" stroke="black" points="480.216,-78.8749 479.573,-68.2996 473.481,-76.968 480.216,-78.8749"/>
</g>
<!-- 9 -->
<g id="node10" class="node"><title>9</title>
<path fill="#399de5" fill-opacity="0.882353" stroke="black" d="M725,-187C725,-187 609,-187 609,-187 603,-187 597,-181 597,-175 597,-175 597,-116 597,-116 597,-110 603,-104 609,-104 609,-104 725,-104 725,-104 731,-104 737,-110 737,-116 737,-116 737,-175 737,-175 737,-181 731,-187 725,-187"/>
<text text-anchor="start" x="615.5" y="-171.8" font-family="Helvetica,sans-Serif" font-size="14.00">oldpeak ≤ 0.516</text>
<text text-anchor="start" x="633.5" y="-156.8" font-family="Helvetica,sans-Serif" font-size="14.00">gini = 0.19</text>
<text text-anchor="start" x="623.5" y="-141.8" font-family="Helvetica,sans-Serif" font-size="14.00">samples = 94</text>
<text text-anchor="start" x="618.5" y="-126.8" font-family="Helvetica,sans-Serif" font-size="14.00">value = [10, 84]</text>
<text text-anchor="start" x="605" y="-111.8" font-family="Helvetica,sans-Serif" font-size="14.00">class = No Disease</text>
</g>
<!-- 8&#45;&gt;9 -->
<g id="edge9" class="edge"><title>8&#45;&gt;9</title>
<path fill="none" stroke="black" d="M667,-222.907C667,-214.649 667,-205.864 667,-197.302"/>
<polygon fill="black" stroke="black" points="670.5,-197.021 667,-187.021 663.5,-197.021 670.5,-197.021"/>
</g>
<!-- 12 -->
<g id="node13" class="node"><title>12</title>
<path fill="#399de5" fill-opacity="0.094118" stroke="black" d="M988,-187C988,-187 872,-187 872,-187 866,-187 860,-181 860,-175 860,-175 860,-116 860,-116 860,-110 866,-104 872,-104 872,-104 988,-104 988,-104 994,-104 1000,-110 1000,-116 1000,-116 1000,-175 1000,-175 1000,-181 994,-187 988,-187"/>
<text text-anchor="start" x="896" y="-171.8" font-family="Helvetica,sans-Serif" font-size="14.00">cp_0 ≤ 0.5</text>
<text text-anchor="start" x="892.5" y="-156.8" font-family="Helvetica,sans-Serif" font-size="14.00">gini = 0.499</text>
<text text-anchor="start" x="886.5" y="-141.8" font-family="Helvetica,sans-Serif" font-size="14.00">samples = 40</text>
<text text-anchor="start" x="881.5" y="-126.8" font-family="Helvetica,sans-Serif" font-size="14.00">value = [19, 21]</text>
<text text-anchor="start" x="868" y="-111.8" font-family="Helvetica,sans-Serif" font-size="14.00">class = No Disease</text>
</g>
<!-- 8&#45;&gt;12 -->
<g id="edge12" class="edge"><title>8&#45;&gt;12</title>
<path fill="none" stroke="black" d="M737.134,-232.3C771.915,-216.827 814.08,-198.069 850.104,-182.043"/>
<polygon fill="black" stroke="black" points="851.891,-185.079 859.605,-177.816 849.046,-178.683 851.891,-185.079"/>
</g>
<!-- 10 -->
<g id="node11" class="node"><title>10</title>
<path fill="#399de5" fill-opacity="0.901961" stroke="black" d="M694,-68C694,-68 578,-68 578,-68 572,-68 566,-62 566,-56 566,-56 566,-12 566,-12 566,-6 572,-0 578,-0 578,-0 694,-0 694,-0 700,-0 706,-6 706,-12 706,-12 706,-56 706,-56 706,-62 700,-68 694,-68"/>
<text text-anchor="start" x="602.5" y="-52.8" font-family="Helvetica,sans-Serif" font-size="14.00">gini = 0.16</text>
<text text-anchor="start" x="592.5" y="-37.8" font-family="Helvetica,sans-Serif" font-size="14.00">samples = 91</text>
<text text-anchor="start" x="591.5" y="-22.8" font-family="Helvetica,sans-Serif" font-size="14.00">value = [8, 83]</text>
<text text-anchor="start" x="574" y="-7.8" font-family="Helvetica,sans-Serif" font-size="14.00">class = No Disease</text>
</g>
<!-- 9&#45;&gt;10 -->
<g id="edge10" class="edge"><title>9&#45;&gt;10</title>
<path fill="none" stroke="black" d="M655.457,-103.726C653.081,-95.3351 650.573,-86.4745 648.176,-78.0072"/>
<polygon fill="black" stroke="black" points="651.519,-76.968 645.427,-68.2996 644.784,-78.8749 651.519,-76.968"/>
</g>
<!-- 11 -->
<g id="node12" class="node"><title>11</title>
<path fill="#e58139" fill-opacity="0.498039" stroke="black" d="M830,-68C830,-68 736,-68 736,-68 730,-68 724,-62 724,-56 724,-56 724,-12 724,-12 724,-6 730,-0 736,-0 736,-0 830,-0 830,-0 836,-0 842,-6 842,-12 842,-12 842,-56 842,-56 842,-62 836,-68 830,-68"/>
<text text-anchor="start" x="745.5" y="-52.8" font-family="Helvetica,sans-Serif" font-size="14.00">gini = 0.444</text>
<text text-anchor="start" x="743.5" y="-37.8" font-family="Helvetica,sans-Serif" font-size="14.00">samples = 3</text>
<text text-anchor="start" x="742.5" y="-22.8" font-family="Helvetica,sans-Serif" font-size="14.00">value = [2, 1]</text>
<text text-anchor="start" x="732" y="-7.8" font-family="Helvetica,sans-Serif" font-size="14.00">class = Disease</text>
</g>
<!-- 9&#45;&gt;11 -->
<g id="edge11" class="edge"><title>9&#45;&gt;11</title>
<path fill="none" stroke="black" d="M710.194,-103.726C720.05,-94.423 730.516,-84.5428 740.349,-75.2612"/>
<polygon fill="black" stroke="black" points="742.854,-77.7092 747.724,-68.2996 738.049,-72.6189 742.854,-77.7092"/>
</g>
<!-- 13 -->
<g id="node14" class="node"><title>13</title>
<path fill="#399de5" fill-opacity="0.682353" stroke="black" d="M988,-68C988,-68 872,-68 872,-68 866,-68 860,-62 860,-56 860,-56 860,-12 860,-12 860,-6 866,-0 872,-0 872,-0 988,-0 988,-0 994,-0 1000,-6 1000,-12 1000,-12 1000,-56 1000,-56 1000,-62 994,-68 988,-68"/>
<text text-anchor="start" x="892.5" y="-52.8" font-family="Helvetica,sans-Serif" font-size="14.00">gini = 0.365</text>
<text text-anchor="start" x="886.5" y="-37.8" font-family="Helvetica,sans-Serif" font-size="14.00">samples = 25</text>
<text text-anchor="start" x="885.5" y="-22.8" font-family="Helvetica,sans-Serif" font-size="14.00">value = [6, 19]</text>
<text text-anchor="start" x="868" y="-7.8" font-family="Helvetica,sans-Serif" font-size="14.00">class = No Disease</text>
</g>
<!-- 12&#45;&gt;13 -->
<g id="edge13" class="edge"><title>12&#45;&gt;13</title>
<path fill="none" stroke="black" d="M930,-103.726C930,-95.5175 930,-86.8595 930,-78.56"/>
<polygon fill="black" stroke="black" points="933.5,-78.2996 930,-68.2996 926.5,-78.2996 933.5,-78.2996"/>
</g>
<!-- 14 -->
<g id="node15" class="node"><title>14</title>
<path fill="#e58139" fill-opacity="0.847059" stroke="black" d="M1124,-68C1124,-68 1030,-68 1030,-68 1024,-68 1018,-62 1018,-56 1018,-56 1018,-12 1018,-12 1018,-6 1024,-0 1030,-0 1030,-0 1124,-0 1124,-0 1130,-0 1136,-6 1136,-12 1136,-12 1136,-56 1136,-56 1136,-62 1130,-68 1124,-68"/>
<text text-anchor="start" x="1039.5" y="-52.8" font-family="Helvetica,sans-Serif" font-size="14.00">gini = 0.231</text>
<text text-anchor="start" x="1033.5" y="-37.8" font-family="Helvetica,sans-Serif" font-size="14.00">samples = 15</text>
<text text-anchor="start" x="1032.5" y="-22.8" font-family="Helvetica,sans-Serif" font-size="14.00">value = [13, 2]</text>
<text text-anchor="start" x="1026" y="-7.8" font-family="Helvetica,sans-Serif" font-size="14.00">class = Disease</text>
</g>
<!-- 12&#45;&gt;14 -->
<g id="edge14" class="edge"><title>12&#45;&gt;14</title>
<path fill="none" stroke="black" d="M984.737,-103.726C997.594,-94.1494 1011.27,-83.9611 1024.05,-74.4438"/>
<polygon fill="black" stroke="black" points="1026.37,-77.0803 1032.3,-68.2996 1022.19,-71.4666 1026.37,-77.0803"/>
</g>
</g>
</svg>
